# xmcd
#
# Track frame offsets: 
#        150
#        19687
#        39173
#
# Disc length: 536 seconds
#
# Revision: 0
# Processed by: cddbd v1.5.2PL0 Copyright (c) Steve Scherf et al.
# Submitted via: ExactAudioCopy v0.99pb4
#
DISCID=15021603
DTITLE=Jay Z - Change Clothes
DYEAR=2003
DGENRE=Hip-Hop
TTITLE0=Change Clothes (Radio)
TTITLE1=Change Clothes (INST)
TTITLE2=Change Clothes (Call Out Hook)
EXTD=
EXTT0=
EXTT1=
EXTT2=
PLAYORDER=
